<svg xmlns="http://www.w3.org/2000/svg" width="100mm" height="100mm" viewBox="0 0 100 100">
<path style="fill:#000000; stroke:none;" d="M0 0L0 10L10 10L10 100L20 100L20 90L30 90L30 100L50 100L50 90L70 90L70 100L80 100L80 90L90 90L90 100L100 100L100 60L90 60L90 50L100 50L100 40L90 40L90 30L100 30L100 10L90 10L90 0L20 0L20 10L10 10L10 0L0 0z"></path>
<path style="fill:#ffffff; stroke:none;" d="M10 0L10 10L20 10L20 0L10 0M90 0L90 10L100 10L100 0L90 0M0 10L0 100L10 100L10 10L0 10M20 20L20 80L80 80L80 20L20 20z"></path>
<path style="fill:#000000; stroke:none;" d="M50 30L50 40L30 40L30 70L60 70L60 40L70 40L70 30L50 30z"></path>
<path style="fill:#ffffff; stroke:none;" d="M90 30L90 40L100 40L100 30L90 30M40 50L40 60L50 60L50 50L40 50M90 50L90 60L100 60L100 50L90 50M20 90L20 100L30 100L30 90L20 90M50 90L50 100L70 100L70 90L50 90M80 90L80 100L90 100L90 90L80 90z"></path>
</svg>